<?xml version="1.0" standalone="no"?>
<!DOCTYPE svg PUBLIC "-//W3C//DTD SVG 20010904//EN"
 "http://www.w3.org/TR/2001/REC-SVG-20010904/DTD/svg10.dtd">
<svg version="1.0" xmlns="http://www.w3.org/2000/svg"
 width="1211.000000pt" height="525.000000pt" viewBox="0 0 1211.000000 525.000000"
 preserveAspectRatio="xMidYMid meet">

<g transform="translate(0.000000,525.000000) scale(0.100000,-0.100000)"
fill="#000000" stroke="none">
<path d="M0 2625 l0 -2625 6055 0 6055 0 0 2625 0 2625 -6055 0 -6055 0 0
-2625z m4577 728 c-4 -850 -7 -1874 -7 -2275 l0 -728 -2110 0 -2110 0 0 2275
0 2275 2117 0 2116 0 -6 -1547z m7183 -728 l0 -2275 -3422 0 -3421 0 6 1412
c4 776 7 1800 7 2275 l0 863 3415 0 3415 0 0 -2275z"/>
<path d="M2105 4231 c-148 -87 -493 -286 -765 -443 l-495 -286 -3 -910 -2
-910 347 -200 c192 -110 543 -313 781 -451 l432 -251 333 194 c182 107 442
258 577 336 135 78 332 192 437 253 l193 112 -3 914 -2 914 -185 107 c-102 59
-447 258 -768 443 -320 185 -588 337 -595 336 -7 -1 -133 -72 -282 -158z
m-273 -833 c-354 -592 -319 -534 -324 -528 -15 19 -300 501 -297 504 2 1 166
97 363 212 198 115 403 234 455 265 53 31 98 55 100 53 2 -2 -132 -229 -297
-506z m925 453 c54 -33 260 -152 458 -266 198 -113 363 -209 367 -213 5 -5
-276 -490 -295 -509 -3 -2 -87 135 -187 304 -238 401 -407 681 -431 716 -11
15 -17 27 -15 27 3 0 49 -27 103 -59z m-154 -396 c112 -187 245 -407 296 -488
50 -82 91 -151 91 -153 0 -2 -268 -4 -595 -4 -327 0 -595 2 -595 5 0 3 26 47
58 98 32 51 166 271 297 490 131 218 239 396 241 395 1 -2 94 -156 207 -343z
m1077 -877 l0 -381 -82 134 c-44 74 -97 160 -115 191 l-35 57 114 190 c62 105
114 190 116 191 1 0 2 -172 2 -382z m-2366 64 l37 -62 -107 -173 c-59 -94
-111 -176 -115 -181 -5 -6 -9 153 -9 359 l0 369 78 -125 c43 -68 95 -152 116
-187z m1732 -187 c-6 -15 -622 -1047 -639 -1070 -13 -18 -17 -14 -63 65 -27
47 -173 293 -326 548 -153 255 -278 464 -278 466 0 1 295 2 655 1 433 0 654
-3 651 -10z m397 -389 c81 -134 147 -246 147 -249 0 -3 -19 -17 -42 -30 -108
-62 -807 -467 -840 -487 -21 -12 -38 -20 -38 -17 0 3 97 166 217 363 119 198
257 427 307 511 50 84 93 152 96 152 3 0 71 -109 153 -243z m-1741 -86 c264
-436 378 -621 400 -653 11 -16 18 -30 15 -33 -2 -3 -139 72 -303 167 -165 94
-370 212 -457 261 -87 50 -156 94 -155 97 19 43 303 480 308 474 4 -4 91 -145
192 -313z"/>
<path d="M9685 3187 c-82 -21 -144 -56 -200 -113 l-52 -53 -12 65 -13 64 -129
0 -129 0 0 -625 0 -625 170 0 170 0 0 393 c0 233 5 410 11 437 12 53 49 104
89 125 15 8 52 17 82 20 73 9 133 -22 168 -85 l25 -45 3 -422 3 -423 169 0
169 0 3 413 c3 403 3 413 25 453 65 122 207 148 306 56 53 -50 57 -87 57 -524
l0 -398 176 0 175 0 -3 458 -3 457 -28 79 c-59 166 -158 258 -316 292 -173 36
-332 -6 -435 -116 l-43 -46 -47 52 c-67 76 -147 113 -256 119 -52 3 -105 0
-135 -8z"/>
<path d="M5640 3025 l0 -165 200 0 200 0 0 165 0 165 -200 0 -200 0 0 -165z"/>
<path d="M6350 3025 l0 -165 295 -2 294 -3 -201 -330 c-110 -181 -241 -395
-289 -473 -49 -79 -89 -146 -89 -148 0 -2 268 -4 595 -4 l595 0 0 165 0 165
-280 0 -280 0 34 53 c25 40 307 505 528 875 l20 32 -611 0 -611 0 0 -165z"/>
<path d="M8140 3166 c-237 -71 -395 -242 -444 -479 -33 -158 -13 -316 56 -456
57 -115 179 -241 285 -294 202 -99 456 -87 632 30 35 24 65 43 67 43 2 0 4
-25 4 -55 l0 -55 140 0 140 0 0 625 0 625 -140 0 -140 0 0 -60 0 -60 -57 46
c-102 83 -202 114 -363 113 -79 0 -123 -6 -180 -23z m367 -326 c207 -102 260
-374 105 -539 -69 -73 -145 -105 -247 -105 -136 0 -238 63 -297 182 -30 60
-33 75 -33 157 0 79 3 97 28 145 91 178 273 244 444 160z"/>
<path d="M5640 2265 l0 -365 200 0 199 0 -2 363 -3 362 -197 3 -197 2 0 -365z"/>
</g>
</svg>
